<svg width="49" height="73" viewBox="0 0 49 73" fill="none" xmlns="http://www.w3.org/2000/svg">
<path d="M26.624 53.152C29.2267 53.152 31.4667 52.7253 33.344 51.872C35.2213 50.976 37.184 49.568 39.232 47.648L44.096 52.64C39.36 57.888 33.6 60.512 26.816 60.512C20.0747 60.512 14.464 58.336 9.984 53.984C5.54667 49.632 3.328 44.128 3.328 37.472C3.328 30.816 5.58933 25.2693 10.112 20.832C14.6773 16.3947 20.416 14.176 27.328 14.176C34.2827 14.176 40.0853 16.736 44.736 21.856L39.936 27.104C37.8027 25.056 35.776 23.6267 33.856 22.816C31.9787 22.0053 29.76 21.6 27.2 21.6C22.6773 21.6 18.88 23.072 15.808 26.016C12.736 28.9173 11.2 32.6507 11.2 37.216C11.2 41.7387 12.7147 45.536 15.744 48.608C18.816 51.6373 22.4427 53.152 26.624 53.152Z" fill="black"/>
<ellipse cx="27" cy="37.5" rx="7" ry="6.5" fill="#090909"/>
</svg>
