<?xml version="1.0" encoding="utf-8"?>
<!-- Generator: Adobe Illustrator 25.0.0, SVG Export Plug-In . SVG Version: 6.00 Build 0)  -->
<svg version="1.1" id="Capa_1" xmlns="http://www.w3.org/2000/svg" xmlns:xlink="http://www.w3.org/1999/xlink" x="0px" y="0px"
	 viewBox="0 0 500 500" style="enable-background:new 0 0 500 500;" xml:space="preserve">
<style type="text/css">
	.st0{fill:#1D1E17;}
	.st1{fill:#1E1E17;}
</style>
<g>
	<path class="st0" d="M122.78,236.36c0-30.32,0.07-60.63-0.08-90.95c-0.02-3.86,0.95-5.11,4.95-5.06
		c19.16,0.21,38.32,0.26,57.47-0.01c4.69-0.07,6.1,0.92,6.09,5.9c-0.2,54.97-0.11,109.94-0.13,164.91c0,10.74,1.31,21.24,5.61,31.19
		c9.11,21.06,25.82,31.54,48.08,33.51c15.12,1.34,29.62-1.27,42.16-10.52c15.81-11.66,22.79-28.2,22.94-47.15
		c0.45-56.97,0.21-113.94,0.28-170.91c0.01-7.58-1.14-6.79,7.01-6.81c18.99-0.04,37.98,0.08,56.97-0.09
		c3.75-0.03,4.74,1.06,4.73,4.8c-0.12,56.47-0.02,112.94-0.13,169.41c-0.04,22.78-4.17,44.68-15.76,64.67
		c-15.18,26.19-38.1,42.24-66.97,49.88c-37.28,9.86-74.22,9.03-109.85-6.76c-34.64-15.36-54.02-42.94-61.09-79.7
		c-1.96-10.19-2.28-20.49-2.28-30.83C122.79,286.67,122.78,261.52,122.78,236.36z"/>
	<path class="st1" d="M199.49,110.27c-19.08-0.04-32.33-13.43-32.15-32.48c0.17-17.88,14.09-30.97,32.81-30.86
		c19.08,0.12,32.13,13.39,32.03,32.57C232.09,97.62,218.6,110.31,199.49,110.27z"/>
	<path class="st1" d="M300.85,46.93c18.92-0.11,32.45,13.31,32.5,32.23c0.04,17.82-13.53,31.03-31.97,31.1
		c-19.14,0.08-32.22-12.71-32.35-31.62C268.89,60.38,282.29,47.03,300.85,46.93z"/>
</g>
</svg>
